<svg width="338" height="212" viewBox="0 0 338 212" xmlns="http://www.w3.org/2000/svg" fill="white">
<path d="M249.96 211.175L308.574 105.546L250.185 0.13794H264.782C272.867 0.13794 282.523 5.89551 286.341 12.7603L337.544 105.546L286.117 198.331C282.299 205.417 272.418 210.954 264.558 210.954H249.96V211.175Z"/>
<path d="M20.201 0.137939C9.42155 0.137939 0.664978 8.77602 0.664978 19.6268V191.688C0.664978 202.317 9.42155 211.177 20.201 211.177H235.343L293.956 105.545L235.343 0.137939H20.201ZM33.4517 58.6003H50.9701L94.0863 128.135H94.31V58.6003H110.03V152.935H92.516L49.6236 83.621H49.1718V152.935H33.4517V58.6003ZM126.426 58.6003H143.045V152.935H126.426V58.6003ZM159.436 58.6003H176.055V96.0253H219.176V58.6003H235.567V152.935H218.948V110.419H176.055V152.935H159.436V58.6003Z"/>
</svg>
